<?xml version="1.0" encoding="UTF-8" standalone="no"?>
<!-- Uploaded to: SVG Repo, www.svgrepo.com, Generator: SVG Repo Mixer Tools -->

<svg
   width="800px"
   height="800px"
   viewBox="0 0 24 24"
   fill="none"
   version="1.1"
   id="svg8"
   sodipodi:docname="code3.svg"
   inkscape:version="1.1.2 (0a00cf5339, 2022-02-04)"
   xmlns:inkscape="http://www.inkscape.org/namespaces/inkscape"
   xmlns:sodipodi="http://sodipodi.sourceforge.net/DTD/sodipodi-0.dtd"
   xmlns="http://www.w3.org/2000/svg"
   xmlns:svg="http://www.w3.org/2000/svg">
  <defs
     id="defs12" />
  <sodipodi:namedview
     id="namedview10"
     pagecolor="#ffffff"
     bordercolor="#666666"
     borderopacity="1.0"
     inkscape:pageshadow="2"
     inkscape:pageopacity="0.0"
     inkscape:pagecheckerboard="0"
     showgrid="false"
     inkscape:zoom="0.61875"
     inkscape:cx="399.19192"
     inkscape:cy="400"
     inkscape:window-width="1324"
     inkscape:window-height="704"
     inkscape:window-x="42"
     inkscape:window-y="27"
     inkscape:window-maximized="1"
     inkscape:current-layer="svg8" />
  <g
     id="g1594">
    <path
       d="m 3.1808669,8.8897754 c 0.6644509,-2.8326748 2.8762342,-5.0444581 5.7089089,-5.708909 2.0457752,-0.4798704 4.1747022,-0.4798704 6.2205072,0 2.832655,0.6644509 5.044397,2.8762342 5.708858,5.7089192 0.47986,2.0457654 0.47986,4.1746924 0,6.2204974 -0.664461,2.832655 -2.876203,5.044397 -5.708858,5.708858 -2.045805,0.47986 -4.174732,0.47986 -6.220497,0 -2.8326849,-0.664461 -5.0444682,-2.876203 -5.7089191,-5.708858 -0.4798704,-2.045805 -0.4798704,-4.174732 0,-6.2205076 z"
       stroke="#363853"
       stroke-width="1.52984"
       id="path1385"
       style="fill:#ffffff;stroke:#ffffff;stroke-opacity:1" />
    <g
       id="g1506"
       transform="translate(1.3710739e-5,1.3710739e-5)">
      <path
         d="M 3.35288,8.95043 C 4.00437,6.17301 6.17301,4.00437 8.95043,3.35288 c 2.00587,-0.47051 4.09327,-0.47051 6.09917,0 2.7774,0.65149 4.946,2.82013 5.5975,5.59756 0.4705,2.00586 0.4705,4.09326 0,6.09916 -0.6515,2.7774 -2.8201,4.946 -5.5975,5.5975 -2.0059,0.4705 -4.0933,0.4705 -6.09916,0 -2.77743,-0.6515 -4.94607,-2.8201 -5.59756,-5.5975 -0.47051,-2.0059 -0.47051,-4.0933 0,-6.09917 z"
         stroke="#363853"
         stroke-width="1.5"
         id="path2"
         style="fill:#ffffff;stroke:#363853;stroke-opacity:1" />
      <g
         id="g1500">
        <path
           d="m 8,9.5 2.0781,1.7318 c 0.4798,0.3998 0.4798,1.1366 0,1.5364 L 8,14.5"
           stroke="#0095ff"
           stroke-width="1.5"
           stroke-linecap="round"
           stroke-linejoin="round"
           id="path4" />
        <path
           d="M 12.5,14.5 H 16"
           stroke="#0095ff"
           stroke-width="1.5"
           stroke-linecap="round"
           id="path6" />
      </g>
    </g>
  </g>
</svg>
